<svg width="64" height="49" viewBox="0 0 64 49" fill="none" xmlns="http://www.w3.org/2000/svg">
<path fill-rule="evenodd" clip-rule="evenodd" d="M30.1091 0H31.8246C35.6659 0.140956 39.5222 1.21977 42.7758 3.11262C45.1662 4.50326 46.907 6.00227 48.7291 8.02008C50.0413 9.47331 51.1629 11.4168 52.0486 13.1557L52.766 14.824C52.9621 15.3808 53.1956 16.0697 53.1956 16.7773C53.1956 17.1269 51.9088 18.4497 51.6093 18.6786C51.3814 18.8527 51.3306 18.9214 51.1346 19.1088C50.4665 19.7473 48.4838 21.1933 47.6746 21.7269C46.9771 22.1869 46.2666 22.6499 45.535 23.0805C45.177 23.2913 44.8011 23.5192 44.4271 23.7197L37.4104 27.189C33.5882 28.8477 29.7609 30.1677 25.7343 31.2537C21.9023 32.2873 17.8095 33.1047 13.6398 33.1047C11.3069 33.1047 10.705 33.3734 9.83485 31.9207C9.49617 31.3553 9.05041 30.2637 8.86079 29.6064C7.94907 26.4463 7.98903 24.8265 7.98903 21.5984C7.98903 18.3721 9.18161 14.9951 10.284 12.8133C11.0796 11.2388 11.4372 10.7683 12.3927 9.37204C12.8371 8.72259 14.3967 6.92795 14.9881 6.41251C18.4142 3.42668 21.2412 1.69157 25.85 0.577785C27.2321 0.243776 28.663 0.0535419 30.1091 0Z" fill="#5BBA3C"/>
<path fill-rule="evenodd" clip-rule="evenodd" d="M51.011 8.53384L51.0548 8.62387L51.2163 8.77779L51.2633 8.86572L51.3081 8.95337L51.4667 9.11008L51.513 9.1999L51.561 9.28257L51.7132 9.45182L51.7586 9.51341L53.7205 12.2722C53.8827 12.4662 53.6734 12.3416 53.9233 12.4572C54.2205 12.5948 55.0302 12.4362 56.4891 13.6463C57.1648 14.2068 57.2965 14.7181 57.055 15.8399C56.7714 17.1569 55.411 18.4736 54.5758 19.3002C53.5066 20.3584 52.5371 21.1106 51.3221 21.9939C42.9416 28.0859 27.1388 33.8651 17.0066 35.2794C13.7643 35.732 8.84436 36.0844 6.68846 34.4559C5.20779 33.3375 5.81353 31.6305 6.70333 30.3536C6.98231 29.9532 7.00281 29.8124 6.94652 29.1224C6.87898 28.2942 6.66869 27.3357 6.6263 26.4824C6.61049 26.164 6.57372 25.3102 6.4952 25.1013C6.33689 24.7941 6.50451 25.0644 6.32567 24.9016L4.66157 26.5964C4.37713 26.8938 4.11368 27.1479 3.86576 27.4807C3.49526 27.9782 3.65311 27.6679 3.45363 27.9032C3.38052 27.9894 3.37003 28.0527 3.30721 28.1472C3.15519 28.3761 3.29213 28.2482 3.05275 28.3474C2.56109 28.6054 1.14793 30.9286 0.756891 31.7323C0.352681 32.5631 0.094164 33.3796 0 34.1718V35.478C0.151566 36.6768 0.737815 37.8009 1.83401 38.8103C3.12892 40.0026 5.54185 40.7654 7.25719 41.0925C9.29312 41.4808 12.1306 41.662 14.5526 41.4644C15.1717 41.4138 15.7377 41.4572 16.3405 41.3697C16.9418 41.2823 17.512 41.2572 18.1101 41.1925C19.244 41.0698 20.4254 40.875 21.5084 40.6989C23.7489 40.3346 25.794 39.8167 27.8904 39.3012C29.8794 38.8122 31.8826 38.1529 33.8154 37.5156C40.0102 35.4731 46.8118 32.281 52.1303 28.7719C55.1069 26.808 57.0578 25.1996 59.5771 22.707C60.465 21.8286 61.0379 21.0477 61.7794 20.0655C62.3966 19.2479 63.0667 17.9064 63.4187 16.8668C63.5334 16.5283 63.613 16.0851 63.6529 15.6117V14.2222C63.6255 13.9167 63.5788 13.6294 63.5113 13.3818C63.0733 11.7759 61.1224 10.2331 59.5339 9.60444C58.5829 9.2281 57.574 8.96675 56.5039 8.74625C55.6922 8.57903 53.821 8.2976 53.0007 8.37143L50.9025 8.35303C50.9907 8.54079 50.8211 8.35877 51.011 8.53384Z" fill="#5BBA3C"/>
<path fill-rule="evenodd" clip-rule="evenodd" d="M19.0121 43.0802L18.3799 43.2108C18.4947 43.3854 18.4633 43.3541 18.6355 43.4608C18.6979 43.4995 18.7548 43.5204 18.8035 43.5575C18.9676 43.6824 18.8617 43.591 18.9487 43.7231C19.189 44.0573 20.748 45.0397 21.1823 45.3175C23.6619 46.904 26.814 47.9802 29.7717 48.4517C30.7286 48.6042 31.669 48.6985 32.5961 48.7369H34.5023C37.192 48.6244 39.7848 48.0349 42.3625 47.0199C43.6574 46.51 45.0942 45.7483 46.2278 44.9956C46.8551 44.5791 47.3147 44.2988 47.913 43.7708C50.2934 41.6702 51.6684 40.3994 53.3987 37.565C53.5327 37.3455 53.601 37.1626 53.7378 36.9364C53.8793 36.7025 53.9525 36.5591 54.0785 36.3093C54.8474 34.7851 55.2101 33.7764 55.7492 32.1775C55.9353 31.6256 56.4384 29.5443 56.4384 28.9385L51.4747 31.9968C50.6033 32.5037 46.94 34.4642 46.2135 34.7609C45.4548 35.0708 44.7619 35.4509 44.0113 35.7954C43.2454 36.1469 42.514 36.4506 41.7575 36.7789C41.0013 37.1071 40.2335 37.3811 39.4643 37.7234L35.9703 39.0224C35.5385 39.1635 35.2145 39.2937 34.769 39.4405C31.3493 40.5674 28.0991 41.4268 24.5531 42.1221L19.0121 43.0802Z" fill="#5BBA3C"/>
<path fill-rule="evenodd" clip-rule="evenodd" d="M3.05273 28.3476C3.29211 28.2484 3.15517 28.3763 3.30719 28.1475C3.37001 28.0529 3.3805 27.9897 3.45361 27.9034C3.65309 27.6681 3.49524 27.9784 3.86574 27.4809C4.11366 27.1481 4.37711 26.894 4.66155 26.5966L6.32565 24.9018C6.50449 25.0646 6.33687 24.7944 6.49518 25.1015L6.4302 24.8125C6.01338 25.0887 4.27635 26.9153 3.79569 27.4738C3.78697 27.484 3.7754 27.4992 3.76671 27.5094C3.75799 27.5196 3.74607 27.5345 3.73732 27.5446L3.67807 27.615C3.66883 27.6247 3.65636 27.6392 3.64673 27.6486C3.63711 27.658 3.62206 27.67 3.61216 27.6791L3.05273 28.3476Z" fill="#A8A8A8"/>
<path fill-rule="evenodd" clip-rule="evenodd" d="M51.0107 8.5336C50.9807 8.63374 50.9577 8.60877 51.0544 8.62363L51.0886 8.75169C51.1168 8.8805 51.1007 8.74832 51.2159 8.77755C51.1733 8.89302 51.1447 8.8726 51.2629 8.86548L51.3077 8.95313L51.3517 9.07428C51.3766 9.20158 51.3593 9.06685 51.4664 9.10984C51.435 9.21314 51.4112 9.18841 51.5126 9.19966L51.5606 9.28233C51.6226 9.43501 51.5885 9.37204 51.7129 9.45158L51.7582 9.51317L51.7129 9.45158L51.5606 9.28233L51.5126 9.19966L51.4664 9.10984L51.3077 8.95313L51.2629 8.86548L51.2159 8.77755L51.0544 8.62363L51.0107 8.5336C50.8207 8.35853 50.9903 8.54054 50.9021 8.35279L53.0004 8.37119C52.9268 8.26369 53.0061 8.28508 52.5467 8.29062L50.792 8.29185C50.8238 8.35121 50.8142 8.37432 50.8547 8.42232C50.9833 8.57476 50.8805 8.47449 51.0107 8.5336Z" fill="#CDCDCE"/>
<path fill-rule="evenodd" clip-rule="evenodd" d="M17.3294 42.8108C17.2424 42.6787 17.3483 42.7701 17.1843 42.6452C17.1355 42.6082 17.0787 42.5872 17.0162 42.5485C16.844 42.4418 16.8754 42.4731 16.7606 42.2985L17.3928 42.168C16.8617 42.168 17.2607 42.2323 16.6274 42.2323C16.7133 42.3561 16.7709 42.4255 16.9097 42.5295L17.3294 42.8108Z" fill="#CDCDCE"/>
<path fill-rule="evenodd" clip-rule="evenodd" d="M27.6342 11.3218C27.0078 11.6089 26.2418 11.9217 25.6727 12.2406C25.0539 12.5874 24.5295 13.2144 24.2813 13.7805C24.2635 13.8211 24.2559 13.8246 24.2378 13.8652C23.8671 14.6976 23.8508 15.8036 24.2491 16.6549L25.0271 18.3178C25.6789 18.019 26.3905 17.9352 27.0825 18.0404C27.4241 18.0923 27.7949 18.2115 28.1026 18.3666C28.7378 18.6868 29.3483 19.2276 29.6635 19.9015L30.095 20.8236L39.764 16.3927C39.3185 15.4406 38.9598 14.8555 39.0765 13.7715L39.29 12.8703C39.3167 12.8144 39.3278 12.802 39.3495 12.7413C39.5346 12.2238 40.0108 11.6981 40.4377 11.3547C40.6013 11.2232 40.8904 11.0483 41.1115 10.947L40.3476 9.31434C39.9896 8.54911 39.362 7.99161 38.6891 7.66685C38.6545 7.65018 38.6398 7.64729 38.602 7.6281C38.1708 7.40922 37.6356 7.33422 37.1572 7.31892C36.3558 7.2933 35.7718 7.59271 35.0425 7.92696C34.7065 8.08095 34.3704 8.23494 34.0344 8.38893C33.9658 8.30746 33.4322 8.11077 33.3155 8.07084L32.9817 7.97951C32.9007 7.96084 32.8385 7.94914 32.7583 7.93233C32.0314 7.78006 30.9585 7.87088 30.252 8.1946L29.9313 8.34161C29.0859 8.72896 28.3859 9.51809 27.9997 10.2626C27.9617 10.3358 27.9384 10.3984 27.9044 10.4664C27.8551 10.565 27.6116 11.1939 27.6342 11.3218Z" fill="#F5F5F5"/>
<path fill-rule="evenodd" clip-rule="evenodd" d="M24.0847 22.5676C24.2825 22.9904 24.5731 23.2701 24.9381 23.4462C25.1738 23.5599 25.309 23.5787 25.5591 23.6177C25.8514 24.2425 26.1438 24.8673 26.4361 25.4922C26.5804 25.8004 26.7219 26.1281 26.8744 26.4302C27.2152 27.1054 27.9651 27.7354 28.678 27.9942C28.7989 28.0381 28.8994 28.0834 29.0271 28.1129C29.2604 28.1669 29.3168 28.1923 29.5707 28.2196L29.9677 28.2432C30.0348 28.2454 30.106 28.2382 30.1711 28.2417C30.2475 28.6055 29.8674 29.5904 30.7437 29.9116C30.852 29.9513 30.933 29.9689 31.0527 29.9673C31.2859 29.964 31.5319 29.872 31.6862 29.6954C31.784 29.5835 31.7894 29.573 31.8517 29.4544C31.9352 29.2954 31.9382 29.0801 31.9441 28.8856C31.9503 28.6797 31.9559 28.4958 31.9621 28.2899L31.9727 27.6914L43.8413 22.2526C43.8893 22.3135 44.6887 22.9313 44.7702 22.9957C44.9316 23.1232 45.0763 23.2507 45.2652 23.3021C45.598 23.3927 45.9409 23.3032 46.1817 23.0399C46.2614 22.9528 46.3056 22.8739 46.3431 22.7723C46.4291 22.5397 46.4401 22.3357 46.31 22.0576C46.2049 21.8331 45.8712 21.6063 45.6634 21.4421C45.5992 21.3914 45.4758 21.306 45.4307 21.2489C45.6087 21.0175 45.6985 20.9717 45.8953 20.6396C46.4354 19.728 46.5552 18.6323 46.1727 17.6034C46.0655 17.3148 45.8639 16.9411 45.7283 16.6515C45.4336 16.0216 45.1389 15.3917 44.8442 14.7618C44.9905 14.6489 45.1281 14.1851 45.1601 13.9856C45.2468 13.4462 45.0084 12.7815 44.5561 12.4276C44.2797 12.2114 44.0833 12.1038 43.7382 12.0347C43.6346 12.014 43.5232 12.0045 43.4202 12.0031C43.2227 12.0004 42.9433 12.0347 42.7095 12.1419L41.8082 12.5549C41.5725 12.6629 41.3579 12.8491 41.2373 13C41.1661 13.0891 41.1086 13.1582 41.054 13.2596C40.7713 13.7849 40.7306 14.3353 40.9988 14.9085L42.0951 17.2516L29.2489 23.1385L28.1668 20.8255C27.8393 20.1256 27.2378 19.7631 26.5528 19.7414C26.3502 19.7349 26.0551 19.7738 25.8154 19.8836L24.9142 20.2966C24.0922 20.6733 23.6988 21.7428 24.0847 22.5676Z" fill="#F5F5F5"/>
</svg>
